<svg id="Layer_1" data-name="Layer 1" xmlns="http://www.w3.org/2000/svg" viewBox="0 0 638 206.17"><defs><style>.cls-1,.cls-2,.cls-3,.cls-4{fill-rule:evenodd;}.cls-2{fill:#8a8a8b;}.cls-3{fill:#ed1c24;}.cls-4{fill:#fff;}</style></defs><title>MSI Logo Vector</title><path class="cls-1" d="M778.93,554.08l30.26-83.44A261.18,261.18,0,0,0,764,475.19l-28.6,78.89Zm-5.16-106-5.8,16a263.32,263.32,0,0,1,45.22-4.53l5.81-16a262.38,262.38,0,0,0-45.23,4.53Z" transform="translate(-181 -396.92)"/><path class="cls-1" d="M616,534.27A232.83,232.83,0,0,0,658,538.05c9.43,0,25.13-1.11,26.53-13.26.56-4.75-4.6-8-12.82-12.53-9.42-5.2-16.66-8-24.84-13.44s-11.71-14.08-9-23.2c8.26-27.35,48.22-32,71.84-32a250.13,250.13,0,0,1,47.48,4.53l-5.54,15.26c-14.2-2.59-66.06-11.39-68.47,9.49-.55,4.76,4.26,7.84,12.5,12.38,9.4,5.19,17,8.11,25.17,13.58s11.7,14.09,9,23.22c-8.28,27.33-48.22,32-71.84,32a249.71,249.71,0,0,1-47.48-4.55L616,534.27Z" transform="translate(-181 -396.92)"/><path class="cls-1" d="M550.35,554.08l25.23-69.62c9.92-27.36-37.12-16.45-48.3,14.36l-20,55.26H463.67l25.23-69.62c9.92-27.37-37.14-16.44-48.31,14.36l-20,55.26H377l40.07-110.5c13.87,0,21.38,3.19,27.69,9.39a17.46,17.46,0,0,1,4.52,8.34,145.62,145.62,0,0,1,20.27-10.55c9.06-3.55,20.32-7.19,34.2-7.18s21.38,3.19,27.68,9.39a17.49,17.49,0,0,1,4.54,8.34,145.06,145.06,0,0,1,20.26-10.55c9.06-3.55,20.32-7.19,34.2-7.18s21.38,3.19,27.68,9.39,6.16,17.48,3.88,23.75l-28.05,77.36Z" transform="translate(-181 -396.92)"/><path class="cls-2" d="M183.5,430.67c24.36-15.22,54.21-28.94,82.7-33.62l.86-.13.83.13c28.5,4.68,58.34,18.4,82.71,33.62l2.47,1.55,0,2.92c.2,36.85-5.76,76.17-22.67,109.29-13.23,25.91-33.6,48.34-61.65,58.05l-1.71.6-1.73-.6c-28.06-9.71-48.43-32.14-61.66-58.05C186.76,511.31,180.8,472,181,435.14v-2.92l2.48-1.55Z" transform="translate(-181 -396.92)"/><path class="cls-3" d="M186.3,435.17c25.51-15.94,54.75-28.61,80.73-32.88h0c26,4.27,55.22,16.94,80.73,32.88.47,85.23-32.44,145.56-80.73,162.3h0c-48.28-16.74-81.2-77.07-80.73-162.3Z" transform="translate(-181 -396.92)"/><path class="cls-1" d="M290.61,468.25c-10.62,12.3-27.52,14.05-39.18,14.57-1.33.14-4,.3-4.64,1.24a1.55,1.55,0,0,0,.55,1.91c13.19,9.32,30.38,2.51,39.42-2-10.44,9.36-28,11-43,5.52-1.92-.66-3.14-.85-3.77-.18a2.05,2.05,0,0,0-.07,2.39c4.21,7.86,7.26,13.93,18,17.33-12.45-.73-20.25-12.56-22.09-18.88-.17,10.59,9,17.87,12.83,22.07-4.95.18-9.78.57-11.89,4.28-1.49,2.34-1.44,5.75-3.5,8.84-5.76-10.76-10.34-25.8-6-38.94,3.24-9.9,9-19.22,22.53-25a104.15,104.15,0,0,0-9.3,11.8c-2.31,4.31.53,5.85,3.73.3,4.47,10.79,36.52,4.32,44.93-6l3.06-1.28-1.52,2Zm-20.27,93.32a1.72,1.72,0,0,1,1.9-.61,1.93,1.93,0,0,1,1.14,3c-1,1.35-2.63,2.32-3.71,3.62a6.55,6.55,0,0,0-1,1.89h0c-.31-2.66-.32-5.56,1.66-7.86Zm-15-4.68a2.4,2.4,0,0,1,2.88,0,2.84,2.84,0,0,1,.5,2.93A13.06,13.06,0,0,1,255.9,562c-1.61,1-3.28,2.18-3.93,3.79a14.7,14.7,0,0,1,1.12-5.82,7.65,7.65,0,0,1,2.29-3.1ZM291,555a1.65,1.65,0,0,1,1.51.17,2.13,2.13,0,0,1,.91,1.43,20,20,0,0,0,.75,3.8,15.21,15.21,0,0,0,.79,1.49,8,8,0,0,1-3-2,6.44,6.44,0,0,1-1.88-3A1.63,1.63,0,0,1,291,555Zm-46.64-7.13a2.29,2.29,0,0,1,2.43.53c.66.68.38,1.58.32,2.36,0,.54-.53,1-1.09,1.23-1.53.72-3.28,1.39-4.79,2.14a6.63,6.63,0,0,0-2.44,2,13,13,0,0,1,1.36-4,9.48,9.48,0,0,1,4.21-4.32Zm63.34-10.51c-.14-.66.5-1.21,1.16-1.53a7.64,7.64,0,0,1,3.33,1.14,6.2,6.2,0,0,0,2,.43,8.13,8.13,0,0,1-4.28,1.28c-1,0-2.05-.52-2.19-1.32Zm-72.62-5.7a1.94,1.94,0,0,1,1.42,0,2.12,2.12,0,0,1,1.64,2.12c-.07.95.07,2.12-1,2.74-2,1.18-4.53,1.85-6.37,3.25a6.68,6.68,0,0,0-1.6,1.63,15.18,15.18,0,0,1,3.14-7.55,9.09,9.09,0,0,1,2.82-2.21Zm26.29-10.31a15.4,15.4,0,0,1,4.71-1c-1.35.47-2.86,1-3.63,2-.3.44-.61,1.09-.08,1.51s1.39.21,2,.47.4,1.09.3,1.61a15.56,15.56,0,0,1-2.37,4.82,1.61,1.61,0,0,0-.37,1.15c.48.06.82-.31,1.17-.51a20,20,0,0,0,4-3.19c.46-.58,1.17-1.1,1.25-1.82s-.93-.74-1-1.26a4.93,4.93,0,0,1,2.56-1.81c2.27-.89,5.57-.68,7,1.14a17.21,17.21,0,0,0-3.43-.94c-.63,0-1.34.23-1.46.75s-.06,1.33-.22,2a8.76,8.76,0,0,1-4.82,5.77,9.65,9.65,0,0,0-2.59,1.29,2.21,2.21,0,0,0-.82,1.6,5.93,5.93,0,0,0,1.8.24,9.05,9.05,0,0,0,4-.28c1.18-.46,1.65-1.58,2.88-2,3.15-1.15,7.2.23,8.57,2.66-1-.47-1.82-1.12-2.87-1.51a3.71,3.71,0,0,0-3.3.41,8.09,8.09,0,0,0-2.12,2.46,1.31,1.31,0,0,1-.93.73c-.83,0-1.59-.55-2.45-.33-1.17.31-2.22.87-3.41,1.16a6,6,0,0,1-2.49,0,26.3,26.3,0,0,0-4.35-.7,2.47,2.47,0,0,0-1.89.54,3.9,3.9,0,0,0-.6,2.27,33.32,33.32,0,0,1-1.27-5.67c-.15-2.39-.73-4.79-.24-7.18a6.14,6.14,0,0,1,1,3.25,1.36,1.36,0,0,0,1.13,1.24,2.87,2.87,0,0,0,2.12-1.36,5.86,5.86,0,0,0,1.46-3.88c0-.63-1-.64-1.34-1.09a2.38,2.38,0,0,1-.34-2.56,4.08,4.08,0,0,1,2.35-2Zm54.73-3.12c0-.49.75-.63,1.27-.61a24.2,24.2,0,0,0,2.95,0,5.55,5.55,0,0,1-2.91,1.68c-.78.14-1.49-.44-1.31-1Zm.72-12.16a12.29,12.29,0,0,0,2.11-1,3.24,3.24,0,0,1-1.78,2.1.59.59,0,0,1-.33-1.13Zm-35.16-12.58c1,3.74,2.33,7.2,6.71,8.59,4.08,1.29,10,.38,14.47,0,3.71-.12,7.16-.81,9.91,1.11a8,8,0,0,1,2.62,3.44,34.93,34.93,0,0,1,1.72,3.93,4.51,4.51,0,0,1-.49,3.71,11.06,11.06,0,0,0-1.93,4.9c-.19,1.67-.54,3.33-.84,5a17.78,17.78,0,0,1-1.58,5c-.8,1.46-2.26,2.56-3.22,3.94a26.05,26.05,0,0,0-3.35,7.21c-.67,2-.93,4-1.49,5.91a6.58,6.58,0,0,1-3.31,4.31c-2.72,1.44-6.13,1.8-9,2.93-2.7,1-4.5,2.77-6.63,4.38-1.68,1.28-3.11,2.73-5.54,3.08-4.47.68-5.6-2.87-13.67,0a3.63,3.63,0,0,1-3.06-.14c-1.93-.94-2.15-3.57-4.3-4.71s-4.77-1.06-7.16-1.52a3.55,3.55,0,0,1-2.52-1.64c-.69-1.4-.71-2.94-1.31-4.36-1.56-3.18-6.69-4.21-8.16-7.13s.52-4.66.53-7.12c-.15-3.28-2.36-4.93-6.71-5.08a26,26,0,0,0,4.11-10.06c.55-1.31.88-2.78,2.29-3.69a17.64,17.64,0,0,1,4.71-1.57,9.74,9.74,0,0,1,5.51.26c4.1,2.25,3.16,8.18,1,10.61-2.95,3.34-10.35,2.68-9.07-2.56,1.52,1.3,3,3.25,5.12.93a1,1,0,0,0,.24-.81,3.21,3.21,0,0,0-2.11-2.11,2.85,2.85,0,0,0-1.91-.18,7.1,7.1,0,0,0-4.37,3.57c-1.66,3.27,1.93,5.89,6.08,5.26,3.86-.76,5.64-2.33,8.14-4.39a70.59,70.59,0,0,0,.35,11.57,32.19,32.19,0,0,0,2.93,9.34,13.07,13.07,0,0,0,6.65,5.9c3.22,1.29,6.76,1.32,10.29,1.3,6,0,14.85-2.58,19.71-5.1,7.77-4.11,8.88-7.4,12.69-13.84a72.83,72.83,0,0,0,4.43-9.91,28.94,28.94,0,0,0,2.09-10.09,8.83,8.83,0,0,0-1.87-5.88c-3.4-4.3-10.65-2.47-17.35-2.67-.52,1.06-.92,2.25,0,3.26,1.64,1.76,5.62,1.49,8.28,1.7-11.45,4.67-21.71-.42-24.55-9.42,2.38,3,6.24,9.06,12.08,7.26,2.13-.64,1.15-2.15.47-3.31-.17-.4-.91-.41-1.34-.56a8.67,8.67,0,0,1-6.21-10.46Zm-36.77-1.93c.86.67,1.15,1.58,2,2.25C255,500,262.16,500,272.5,500.34c-9.16,2.25-20.84.87-27.37-5.31a9.66,9.66,0,0,1-2.08-2.65c-.47-1.43.8-1.59,1.83-.78Zm38.36-1.7c8.29-.45,16.76,2.69,19.42,10.73-1.1-1.2-5.61-2.26-7.3-1.85a1.15,1.15,0,0,0-1,.76c-.18.72.24,1.28.52,1.93-4.55.52-7.85-1-9.89-3.91a14.39,14.39,0,0,0,3.21,1.3,6.41,6.41,0,0,0,5.75-1.93c.81-.88.29-2-.66-2.68-3.47-2.57-6.41-2.87-10.08-4.35Zm8.47-15c1.08-.8,2-1.71,3-2.56C290.1,479.44,278.83,485,270,486.6c-4.48.89-14.28,2.06-18.4-.2-.45-.24-.91-.78-.49-1.18a4.62,4.62,0,0,1,2.6-.41c1.74.17,3.59,0,5.35,0a79.17,79.17,0,0,0,13.58-1.3,48,48,0,0,0,19.11-8.53ZM207.9,449.32a6.18,6.18,0,0,1,3.83.43,7.05,7.05,0,0,1,3,2.9,2,2,0,0,1,.44,1.76c-.4.09-.82.13-1.21.23-.34.33-.23.79-.23,1.18a18.45,18.45,0,0,0,2,5.71,1.81,1.81,0,0,0,.64.68c.35-2.17-.21-4.31.68-6.43.16-.3.34-.7.8-.78.76,0,1.33.63,2.11.51.64-.3.54-1,.49-1.5-.2-1.29-1.48-2.2-2.33-3.25a10.74,10.74,0,0,1,4.44,4.42,2.55,2.55,0,0,1-.78,3.2,2.51,2.51,0,0,1-1.82.21c-1.37,1.32-1.17,3-.84,4.61.11.39.2,1.07.9,1,1.44-.31,2.36-1.29,3.57-1.9-2.76,3.43-5.12,5.32-7,9.52a8.41,8.41,0,0,0,0-2.65,2.19,2.19,0,0,0-1.2-1.11c-1.37-.67-3-1-4.35-1.67s-2.21-2-3.12-3.08c-.57-.7-1.69-.32-2.39-.88a9.26,9.26,0,0,1-.31-2.09c-.21-1.08-.27-2.52-1.47-3.22a8.42,8.42,0,0,0-4.29-.72v0a6.49,6.49,0,0,1,8,1.92c.76.87.6,2,1.33,2.89a7.7,7.7,0,0,0,2.12,1.5,8.2,8.2,0,0,0,2.65,1.2,3.11,3.11,0,0,0-.71-3,9,9,0,0,1-2.17-4.91,5.21,5.21,0,0,1,.6-3.46c.29-.56.81-1.21.34-1.8-.83-1-2.46-1.06-3.76-1.41Zm51.28-19.75a139.81,139.81,0,0,0,12.6,7.42c-.89.72-1.94,1.8-3.13,1.78-2.61-.95-8.27-6.91-9.47-9.2Zm5.42-8.11h.08c5.46,6.87,11.29,12.2,19.49,16.07a16.38,16.38,0,0,0,7,2c1.45.12,2.83-.86,4.27-.86A8.18,8.18,0,0,1,300,440.2a1.47,1.47,0,0,1,.7,1,8.1,8.1,0,0,0,2.33,4.7c.91.81,2.4.75,3.71.52a2.79,2.79,0,0,0,2,2.21c1.13.23,2.06-.93,3.27-.6.5.65.78,1.28,1.3,1.93.47.45,1.25.57,1.8.95a11,11,0,0,1,4.32,5c-1.2-1.3-2.59-2.9-4.53-3.56.08,2.81-.1,6.77-2,8.26-.08-1.81,0-3.57-1.06-5.18-1.65,1.2-3.33,2.9-5.49,3.3.83-1,2.47-2.14,1.94-3.41a4.33,4.33,0,0,0-3.39-.47,11.76,11.76,0,0,0-4.81,2.57,24.2,24.2,0,0,0-1.11-2.79c-1,.17-4.68,1.39-3.64,3,1.59,2,4.14,1.2,5.66,1.49a4.12,4.12,0,0,1,2.25,2c.09-.75.16-1.5.27-2.24a50.83,50.83,0,0,1,4.31,6c1.83-.81,2.2-1.66,2.43-4a6.32,6.32,0,0,1,.84,3.49,3.61,3.61,0,0,0,1.16-1.53c.69,3.19-.07,8-4.57,9.47.82-2.13,1.14-4-1.73-4-2.26,0-4.8.83-7,1.1.87-.46,4.72-2.63,4.05-3.91-.29-.49-.84-.64-1.43-.86a20.81,20.81,0,0,0-4.29-1.44c-.73-.11-1.39.43-2,.69-3.74-1.78-5.05.43-7.71.82a7.18,7.18,0,0,1-6.69-3.12c-3-4.64,1.48-7.47,5.28-8.66-5-.58-7,1.12-8.19,6.1a45.38,45.38,0,0,0-6.54-1.42c-16.58-2.42-29.7,2.47-37.31,10.56-7.34,7.8-11.9,19.87-11.82,29.69-.22,10.72,3.06,17,8.61,26.37-8-6.59-11.61-14.89-14-20.42-1,1.17-.69,2.62-1,3.95-4.65-6.33,1.82-22.29,4.88-29.45-2.43,1.13-3.89,3.14-5.65,4.8-.29-9,7.7-18.23,15.88-25.61a24.54,24.54,0,0,0-6.69,2.46c7.84-8.27,22.16-13,35.09-13.52-3-1-6.68-1.23-9.89-1.77,10.1-2.1,17-2.18,23.84-6.7,3.18,2.06,6.88,4.16,8.7,3.61-5.46-3.9-15.45-13-17.39-20.1ZM294.44,443a17.57,17.57,0,0,0,2,2.33,3.66,3.66,0,0,0,3.59,1.14,7.43,7.43,0,0,0-1-2.19,1.41,1.41,0,0,0-1-.49c-1.24-.22-2.43-.57-3.67-.79Z" transform="translate(-181 -396.92)"/><path class="cls-4" d="M290.07,466.86c-10.62,12.3-27.52,14.06-39.18,14.58-1.33.14-4,.3-4.64,1.24a1.55,1.55,0,0,0,.54,1.91c13.2,9.31,30.39,2.5,39.43-1.95-10.44,9.36-28,11-43,5.51-1.92-.65-3.15-.85-3.77-.17a2,2,0,0,0-.07,2.38c4.21,7.86,7.26,13.93,18,17.33-12.45-.73-20.25-12.56-22.09-18.87-.17,10.58,9,17.87,12.83,22.07-4.95.18-9.78.57-11.89,4.28-1.49,2.34-1.44,5.74-3.5,8.84-5.76-10.77-10.34-25.8-6-38.94,3.24-9.91,9-19.22,22.53-25a103.17,103.17,0,0,0-9.3,11.79c-2.31,4.32.53,5.85,3.73.31,4.47,10.79,36.52,4.32,44.93-6l3.06-1.28-1.52,1.95ZM269.8,560.19a1.7,1.7,0,0,1,1.9-.61,1.93,1.93,0,0,1,1.14,3c-1,1.34-2.63,2.31-3.71,3.62a6.55,6.55,0,0,0-1,1.89h0c-.32-2.66-.32-5.56,1.66-7.86Zm-15-4.68a2.37,2.37,0,0,1,2.88,0,2.84,2.84,0,0,1,.5,2.93,13.2,13.2,0,0,1-2.87,2.17c-1.6,1-3.27,2.18-3.92,3.78a14.69,14.69,0,0,1,1.12-5.81,7.52,7.52,0,0,1,2.29-3.1Zm35.61-1.85a1.62,1.62,0,0,1,1.51.17,2.11,2.11,0,0,1,.91,1.42,19.91,19.91,0,0,0,.75,3.81,15.21,15.21,0,0,0,.79,1.49,8,8,0,0,1-3-2,6.42,6.42,0,0,1-1.88-3.06,1.62,1.62,0,0,1,.93-1.81Zm-46.64-7.13a2.27,2.27,0,0,1,2.43.53c.66.67.38,1.58.32,2.36,0,.53-.54,1-1.09,1.23-1.53.72-3.28,1.38-4.79,2.13a6.75,6.75,0,0,0-2.44,2,13.26,13.26,0,0,1,1.36-4,9.43,9.43,0,0,1,4.21-4.32ZM307.15,536c-.14-.67.5-1.21,1.16-1.53a7.64,7.64,0,0,1,3.33,1.14,5.93,5.93,0,0,0,2,.42,8,8,0,0,1-4.28,1.28c-1,0-2-.51-2.19-1.31Zm-72.62-5.7a1.89,1.89,0,0,1,1.42,0,2.12,2.12,0,0,1,1.64,2.12c-.07.95.07,2.11-1.05,2.74-2,1.18-4.53,1.84-6.37,3.24a6.72,6.72,0,0,0-1.6,1.64,15.1,15.1,0,0,1,3.14-7.55,9,9,0,0,1,2.82-2.21ZM260.82,520a15.34,15.34,0,0,1,4.71-1c-1.35.46-2.86,1-3.63,2-.3.45-.61,1.1-.08,1.52s1.39.2,2,.47.41,1.08.31,1.61a15.56,15.56,0,0,1-2.37,4.82,1.59,1.59,0,0,0-.37,1.14c.48.07.82-.3,1.17-.5a20,20,0,0,0,4-3.2c.46-.57,1.17-1.09,1.25-1.81s-.93-.74-1-1.26a4.84,4.84,0,0,1,2.55-1.81c2.28-.89,5.58-.69,7,1.13a17.89,17.89,0,0,0-3.43-.93c-.63,0-1.34.23-1.46.75s-.06,1.33-.22,2a8.76,8.76,0,0,1-4.82,5.77,9.51,9.51,0,0,0-2.59,1.29,2.19,2.19,0,0,0-.82,1.6,5.93,5.93,0,0,0,1.8.24,9.05,9.05,0,0,0,4.05-.29c1.18-.45,1.65-1.57,2.88-2,3.15-1.16,7.2.23,8.57,2.66a31.25,31.25,0,0,0-2.87-1.51,3.71,3.71,0,0,0-3.3.41,8.17,8.17,0,0,0-2.12,2.45,1.3,1.3,0,0,1-.93.74c-.83,0-1.59-.55-2.45-.33-1.17.31-2.22.87-3.41,1.16a5.81,5.81,0,0,1-2.49,0,27.38,27.38,0,0,0-4.35-.69,2.47,2.47,0,0,0-1.89.54,3.89,3.89,0,0,0-.6,2.26,34,34,0,0,1-1.27-5.66c-.15-2.4-.73-4.8-.24-7.18a6.11,6.11,0,0,1,1.05,3.24,1.37,1.37,0,0,0,1.13,1.25c1,0,1.6-.78,2.12-1.36a5.86,5.86,0,0,0,1.46-3.88c0-.63-1-.65-1.34-1.1a2.38,2.38,0,0,1-.34-2.56,4.1,4.1,0,0,1,2.35-2Zm54.73-3.12c0-.49.75-.64,1.27-.61a28.81,28.81,0,0,0,2.94,0,5.48,5.48,0,0,1-2.9,1.68c-.78.13-1.49-.44-1.31-1Zm.72-12.16a13.13,13.13,0,0,0,2.11-1,3.26,3.26,0,0,1-1.78,2.11.59.59,0,0,1-.33-1.13Zm-35.16-12.59c1,3.74,2.32,7.2,6.71,8.59,4.08,1.3,10,.38,14.47,0,3.71-.13,7.16-.82,9.91,1.11a7.92,7.92,0,0,1,2.62,3.43,35.89,35.89,0,0,1,1.72,3.94,4.51,4.51,0,0,1-.49,3.71,11,11,0,0,0-1.93,4.9c-.19,1.67-.54,3.32-.84,5a18,18,0,0,1-1.58,5c-.8,1.45-2.26,2.56-3.22,3.94a26,26,0,0,0-3.36,7.21c-.66,1.94-.92,4-1.48,5.91a6.56,6.56,0,0,1-3.31,4.3c-2.72,1.45-6.13,1.81-9.05,2.94-2.69,1-4.49,2.77-6.62,4.37-1.68,1.28-3.11,2.74-5.54,3.09-4.47.68-5.6-2.88-13.67,0a3.66,3.66,0,0,1-3.06-.14c-1.93-.94-2.15-3.57-4.3-4.72s-4.77-1.06-7.16-1.52a3.51,3.51,0,0,1-2.52-1.63c-.69-1.4-.71-2.94-1.31-4.37-1.56-3.17-6.69-4.2-8.16-7.13s.52-4.65.53-7.11c-.15-3.28-2.36-4.93-6.71-5.08a26,26,0,0,0,4.11-10.06c.55-1.32.88-2.79,2.29-3.69a17.64,17.64,0,0,1,4.71-1.57,9.65,9.65,0,0,1,5.51.26c4.1,2.25,3.16,8.18,1,10.61-2.95,3.33-10.35,2.67-9.08-2.56,1.53,1.29,3,3.25,5.13.93a1,1,0,0,0,.24-.81,3.23,3.23,0,0,0-2.11-2.12,3,3,0,0,0-1.9-.18,7.1,7.1,0,0,0-4.38,3.57c-1.66,3.28,1.93,5.9,6.08,5.27,3.86-.77,5.64-2.33,8.14-4.39a69.52,69.52,0,0,0,.36,11.57,31.87,31.87,0,0,0,2.92,9.34,13.07,13.07,0,0,0,6.65,5.9c3.22,1.29,6.76,1.32,10.29,1.3,6,0,14.85-2.59,19.71-5.1,7.77-4.11,8.88-7.4,12.69-13.84a73,73,0,0,0,4.43-9.92,28.84,28.84,0,0,0,2.09-10.08,8.79,8.79,0,0,0-1.87-5.88c-3.4-4.3-10.65-2.47-17.35-2.67-.52,1.05-.92,2.25,0,3.25,1.64,1.77,5.62,1.5,8.28,1.71-11.45,4.66-21.71-.43-24.55-9.43,2.38,3,6.24,9.07,12.08,7.27,2.13-.64,1.15-2.15.47-3.31-.17-.41-.91-.41-1.34-.57a8.67,8.67,0,0,1-6.21-10.46Zm-36.77-1.92c.86.67,1.15,1.58,2,2.25,8.11,6.17,15.27,6.15,25.61,6.49-9.16,2.25-20.84.87-27.36-5.31a9.52,9.52,0,0,1-2.09-2.65c-.47-1.44.8-1.59,1.83-.78Zm38.36-1.7c8.29-.45,16.76,2.68,19.42,10.72-1.1-1.19-5.61-2.25-7.3-1.84a1.13,1.13,0,0,0-1,.76c-.19.71.24,1.27.52,1.93-4.55.52-7.85-1-9.89-3.92a14,14,0,0,0,3.21,1.31,6.41,6.41,0,0,0,5.75-1.93c.81-.88.29-2-.67-2.68-3.46-2.58-6.4-2.87-10.07-4.35Zm8.47-15c1.08-.81,2-1.72,3-2.56-4.63,7.06-15.9,12.65-24.78,14.22-4.47.89-14.27,2.06-18.39-.2-.45-.24-.91-.78-.49-1.19a4.61,4.61,0,0,1,2.6-.4c1.74.16,3.59-.05,5.34,0a79.2,79.2,0,0,0,13.59-1.31,48,48,0,0,0,19.11-8.52Zm-83.81-25.63a6.18,6.18,0,0,1,3.83.44,7,7,0,0,1,3,2.89,2,2,0,0,1,.45,1.77c-.4.09-.82.13-1.21.23-.34.33-.23.79-.23,1.17a18.51,18.51,0,0,0,2,5.72,1.81,1.81,0,0,0,.64.68c.35-2.17-.21-4.31.68-6.43.16-.31.33-.7.8-.78.76,0,1.33.63,2.1.51.65-.3.55-1,.5-1.5-.2-1.3-1.48-2.21-2.33-3.25A10.74,10.74,0,0,1,222,453.8a2.55,2.55,0,0,1-.78,3.2,2.51,2.51,0,0,1-1.82.2c-1.37,1.33-1.16,3-.84,4.61.11.4.2,1.08.9,1,1.44-.31,2.36-1.29,3.57-1.9-2.77,3.42-5.12,5.31-7,9.51a8.41,8.41,0,0,0,0-2.65,2.18,2.18,0,0,0-1.2-1.1c-1.37-.67-3-1-4.35-1.67s-2.21-2-3.12-3.08c-.57-.7-1.69-.32-2.39-.89a9.1,9.1,0,0,1-.31-2.09c-.21-1.07-.27-2.51-1.47-3.22a8.55,8.55,0,0,0-4.29-.71v0a6.94,6.94,0,0,1,3.47-.63,7.11,7.11,0,0,1,4.56,2.55c.76.87.6,2,1.33,2.89a7.68,7.68,0,0,0,2.12,1.49,8.22,8.22,0,0,0,2.65,1.21,3.13,3.13,0,0,0-.71-3,8.83,8.83,0,0,1-2.17-4.91,5.19,5.19,0,0,1,.6-3.45c.29-.56.81-1.21.34-1.8-.83-1-2.46-1.06-3.76-1.42Zm51.28-19.74a139.81,139.81,0,0,0,12.6,7.42c-.89.71-1.94,1.8-3.13,1.78-2.61-.95-8.27-6.92-9.47-9.2Zm5.42-8.11h.08c5.46,6.87,11.29,12.19,19.49,16.07a16.38,16.38,0,0,0,7,2c1.45.11,2.83-.86,4.27-.87a8.11,8.11,0,0,1,4.58,1.54,1.45,1.45,0,0,1,.7,1,8.1,8.1,0,0,0,2.33,4.7c.91.81,2.4.75,3.71.52a2.8,2.8,0,0,0,2,2.21c1.12.22,2.06-.93,3.27-.6.5.65.78,1.28,1.3,1.93.46.45,1.25.57,1.8.95a10.94,10.94,0,0,1,4.32,5c-1.2-1.3-2.59-2.9-4.53-3.56.08,2.81-.1,6.76-2,8.26-.08-1.81,0-3.57-1.06-5.18-1.65,1.2-3.33,2.9-5.49,3.29.83-1,2.47-2.13,1.94-3.4a4.33,4.33,0,0,0-3.39-.47,11.86,11.86,0,0,0-4.81,2.56,24.77,24.77,0,0,0-1.11-2.78c-1,.17-4.68,1.39-3.64,3,1.59,2,4.14,1.2,5.66,1.49a4.07,4.07,0,0,1,2.25,2c.09-.74.15-1.49.27-2.24a50.93,50.93,0,0,1,4.31,6.05c1.83-.81,2.2-1.66,2.43-4a6.28,6.28,0,0,1,.84,3.49,3.74,3.74,0,0,0,1.16-1.53c.69,3.19-.07,8-4.57,9.47.82-2.13,1.14-4-1.73-4-2.26,0-4.8.83-7,1.09.87-.45,4.72-2.63,4.05-3.9-.29-.49-.84-.64-1.43-.86a20.81,20.81,0,0,0-4.29-1.44c-.73-.11-1.39.43-2,.69-3.73-1.78-5.05.42-7.71.82a7.18,7.18,0,0,1-6.69-3.12c-3-4.64,1.48-7.48,5.28-8.66-5-.58-7,1.12-8.19,6.1a44,44,0,0,0-6.54-1.43c-16.58-2.42-29.7,2.48-37.31,10.57-7.34,7.8-11.9,19.86-11.82,29.69-.22,10.71,3.06,17,8.61,26.37-8-6.59-11.61-14.9-14-20.42-1,1.16-.69,2.62-1,3.95-4.65-6.33,1.81-22.29,4.88-29.45-2.43,1.12-3.9,3.14-5.65,4.8-.29-9.06,7.7-18.23,15.88-25.62a24.56,24.56,0,0,0-6.69,2.47c7.83-8.28,22.16-13,35.09-13.53-3.05-1-6.68-1.22-9.89-1.77,10.1-2.09,17-2.17,23.84-6.69,3.18,2.06,6.88,4.16,8.7,3.6-5.46-3.89-15.45-13-17.39-20.09Zm29.84,21.53a17.49,17.49,0,0,0,2,2.32,3.64,3.64,0,0,0,3.59,1.15,7.43,7.43,0,0,0-.95-2.19,1.41,1.41,0,0,0-1-.49c-1.24-.22-2.43-.57-3.67-.79Z" transform="translate(-181 -396.92)"/><path class="cls-1" d="M186.3,435.17c25.51-15.94,54.75-28.61,80.73-32.88h0c26,4.27,55.22,16.94,80.73,32.88V437c-25.23-15.87-54-28.53-79.56-33h0c-26,4-55.22,16.34-80.73,32-.34,60.4,16.11,108.48,42.91,137.5-27.49-28.58-44.42-77-44.08-138.28Z" transform="translate(-181 -396.92)"/></svg>